<svg width="275" height="28" viewBox="0 0 275 28" fill="none" xmlns="http://www.w3.org/2000/svg">
<path d="M24.4612 21.1023L24.4761 27.3683H30.3166L30.2709 11.3649L24.4612 21.1023Z" fill="#17B5B5"/>
<path d="M30.2408 0.844687L30.2397 0.461262H25.1293L15.2159 17.1821L5.14882 0.461262H0V27.3683H5.84046V11.57L13.7174 24.5238H16.5223L23.1644 13.3636L30.2408 0.844687Z" fill="#17B5B5"/>
<path fill-rule="evenodd" clip-rule="evenodd" d="M49.7237 27.8296C58.177 27.8296 64.4401 21.9485 64.4401 13.9148C64.4401 5.88111 58.177 0 49.7237 0C41.232 0 35.0073 5.91955 35.0073 13.9148C35.0073 21.91 41.232 27.8296 49.7237 27.8296ZM49.7237 22.525C44.9207 22.525 41.3088 19.0271 41.3088 13.9148C41.3088 8.80244 44.9207 5.30453 49.7237 5.30453C54.5267 5.30453 58.1386 8.80244 58.1386 13.9148C58.1386 19.0271 54.5267 22.525 49.7237 22.525Z" fill="#17B5B5"/>
<path d="M96.6515 19.5268L102.915 0.461262H108.87L100.071 27.3683H93.3855L87.4681 9.14839L81.3587 27.3683H75.8128L79.9939 14.6187L84.74 0.461262H90.5036L96.6515 19.5268Z" fill="#17B5B5"/>
<path d="M65.8738 0.461262L72.5386 20.753L75.5954 10.6363L72.3291 0.461262H65.8738Z" fill="#17B5B5"/>
<path fill-rule="evenodd" clip-rule="evenodd" d="M125.033 27.8296C133.487 27.8296 139.75 21.9485 139.75 13.9148C139.75 5.88111 133.487 0 125.033 0C116.542 0 110.317 5.91955 110.317 13.9148C110.317 21.91 116.542 27.8296 125.033 27.8296ZM125.033 22.525C120.23 22.525 116.618 19.0271 116.618 13.9148C116.618 8.80244 120.23 5.30453 125.033 5.30453C129.836 5.30453 133.448 8.80244 133.448 13.9148C133.448 19.0271 129.836 22.525 125.033 22.525Z" fill="#17B5B5"/>
<path d="M173.984 11.5348H155.31V27.3683H161.534V16.1904H173.984V11.5348Z" fill="#17B5B5"/>
<path d="M179.85 27.3683H199.562V22.2944H186.075V0.461262H179.85V27.3683Z" fill="#17B5B5"/>
<path d="M209.226 16.1442V22.3713H223.865V27.3683H203.04V11.5123H221.714V16.1442H209.226Z" fill="#17B5B5"/>
<path d="M235.004 22.3713V16.1442H247.492V11.5123H228.818V27.3683H249.644V22.3713H235.004Z" fill="#17B5B5"/>
<path d="M266.393 27.3683H260.168V5.30238H251.561V0.461262H275V5.30238H266.393V27.3683Z" fill="#17B5B5"/>
<path d="M175.639 0.463867V5.26868H155.312V0.463867H175.639Z" fill="#FF4A55"/>
<path d="M223.368 5.26868H203.042V0.463867H223.368V5.26868Z" fill="#FF4A55"/>
<path d="M228.821 5.26868H249.147V0.463867H228.821V5.26868Z" fill="#FF4A55"/>
</svg>
